/* XPM */
static char *a63d73a5d6fe491cfcc07934f9c96fc9iNkP9NcMyhCdkXzv[] = {
/* columns rows colors chars-per-pixel */
"32 32 7 1 ",
"  c None",
". c #00FF8C",
"X c #5C855B",
"o c #FAFA82",
"O c #453625",
"+ c #E17B50",
"@ c white",
/* pixels */
"                                ",
"                                ",
"                                ",
"                                ",
"                                ",
"                                ",
"                                ",
"              ...               ",
"             .XXX.              ",
"             .X.X.              ",
"             .XXX.              ",
"            oOXXXOo             ",
"          o+o+OOO+o+o           ",
"         ooo+o+++o+ooo          ",
"         ooo       ooo          ",
"        ooo         ooo         ",
"        oo           oo         ",
"        oo           oo         ",
"        oo           oo         ",
"         oo         oo          ",
"         oo++     +++o          ",
"          +++++++++++           ",
"           +++++++++            ",
"             +++++              ",
"                                ",
"                                ",
"                                ",
"                                ",
"                                ",
"                                ",
"                                ",
"                                "
};
