/* XPM */
static char *b2eb5272ff5844b18c70295ed0514d71qVgNDNtxJoyszoXH[] = {
/* columns rows colors chars-per-pixel */
"32 32 5 1 ",
"  c None",
". c #70162B",
"X c #0C1317",
"o c #EF3E6D",
"O c white",
/* pixels */
"                                ",
"                                ",
"                                ",
"                                ",
"                                ",
"                                ",
"                                ",
"           ..........           ",
"        ......XXXX......        ",
"      ooXXXXXXXXXXXXXXXXoo      ",
"    ...ooXXXXXXXXXXXXXXoo...    ",
"   ...XoXooXXXXXXXXXXooXoX...   ",
"  ..XXXoXXXooXXXXXXooXXXoXXX..  ",
" ..XXXXXoXXXXooXXooXXXXoXXXXX.. ",
" ..XXXXXoXXXXXooooXXXXXoXXXXX.. ",
"..XXXXXXXoXoooXXXXoooXoXXXXXXX..",
"..XXXXXXoooXXXXXXXXXXoooXXXXXX..",
"..XXXoooXXoXXXXXXXXXXoXXoooXXX..",
"..XooXXXXXoXXXXXXXXXXoXXXXXooX..",
".oooooooooooooooooooooooooooooo.",
" ..XXXXXXXXXoXXXXXXoXXXXXXXXX.. ",
" ..XXXXXXXXXoXXXXXXoXXXXXXXXX.. ",
"  ..XXXXXXXXXoXXXXoXXXXXXXXX..  ",
"   ..XXXXXXXXoXXXXoXXXXXXXX..   ",
"    ...XXXXXXXoXXoXXXXXXX...    ",
"      ...XXXXXoXXoXXXXX...      ",
"        .....XXooXX.....        ",
"           ....oo....           ",
"                                ",
"                                ",
"                                ",
"                                "
};
