/* XPM */
static char *bcb70d56e065488fb19b03ff05189fe5sRnS2jbd766lpQOu[] = {
/* columns rows colors chars-per-pixel */
"32 32 9 1 ",
"  c None",
". c #3B6983",
"X c #00EDFF",
"o c #0C1317",
"O c #D3D9B2",
"+ c #DEF9FC",
"@ c #A84111",
"# c #82A368",
"$ c white",
/* pixels */
"                                ",
"               .....       X    ",
"              .......    X XX X ",
"             ..ooo....  X XXXXX ",
"             .oOOOo...  XXXXXX  ",
"             .OOOOOo..   X++XX  ",
"            ..oOOooO... @X+@+X@ ",
"           ...ooOooO... @@+@+@@ ",
"           ..oOooOOoo... @@@@@  ",
"            .ooOOOooo..    @    ",
"          ##..ooOoOo...#   @    ",
"        ######.oOOo...#### @    ",
"         ######.oo..###### @    ",
"     .....#######o####### OO    ",
"   OOOOo...######o######.. @    ",
"  O OooO....#####.#####...OOO   ",
"    OOooo.....###.###....oOOO.  ",
"    .oooo.......###......ooOo.  ",
"    .ooo........###......oO@o.  ",
"     .o.........#.#......oo@o.  ",
"      ...  .....#.#.... .oo@.   ",
"           .....#.#.... ...@    ",
"           .....###....  ..@    ",
"          ......###....  ..@    ",
"          ......#.#.....   @    ",
"          ......#.#.....   @    ",
"         ......##.#.....   @    ",
"         ......##.#.....   @    ",
"         ......##o##....   @    ",
"          .....#oo##....   @    ",
"            ...#oo##...    @    ",
"                                "
};
