/* XPM */
static char *_615db11bc9b450ced1e222b26ce555e6E5neTRVzPObPjQM[] = {
/* columns rows colors chars-per-pixel */
"32 32 4 1 ",
"  c #0C1317",
". c #17394A",
"X c #5A5875",
"o c white",
/* pixels */
"      ........    .XXXXXXX....  ",
"  ...XXXXXXX......XXXXXXXXXX... ",
" ...XXXXXXXXX....XXXXXXXXXXX... ",
" ..XXXXXXXXXXX..XXXXXXXXXXXX .. ",
"  .XXXXXXXXXXXXX.XXXXXXXXXXX .  ",
"  .XXXXXXXXXXXXX.XXXXXXXXXX.... ",
" ..XXXXXXXXXXXXXXXXXXXXXXX......",
"...XXXXXXXXXXXXXXXXXXXXXX.......",
"...XXXXXXXXXXXXX..XXXXXX.XXX ...",
"....XXXXXXXXXXX....XXXX XXXXX ..",
"... .XXXXXXXXX.XXXX....XXXXXXX. ",
" .X. .XXXXXXX.XXXXXXX.XXXXXXXXX ",
" XXX.    ....XXXXXXXX.XXXXXXXXX ",
" XXXX......XXXXXXXXXX.XXXXXXXXXX",
" XXXXX....XXXXXXXXXXX..XXXXXXXXX",
" XXXXX.X..XXXXXXXXXXX. .XXXXXXXX",
" .XXX.XXXX.XXXXXXX...XX....XXXX.",
" ....XXXXXX.XXXXX.XXXXXX....XX. ",
" ...XXXXXXXX.XXX.XXXXXXXXXX.... ",
" ..XXXXXXXXXX.. XXXXXXXXXXXX .  ",
"..XXXXXXXXXXXXX XXXXXXXXXXXX .  ",
".XXXXXXXXXXXXXX XXXXXXXXXXX.... ",
".XXXXXXXXXXXXXX.XXXXXXXXXX .....",
"..XXXXXXXXXXXXX..XXXXXXXX ......",
" .XXXXXXXXXXXXX...XXXXXX XXX ...",
" ...XXXXXXXXXXX....XXXX XXXXX . ",
" .. .XXXXXXXXXX XXXX...XXXXXXX. ",
"  .. .XXXXXXXX XXXXXX.XXXXXXXXX ",
"  ... ..XXXX. XXXXXXXXXXXXXXXXX.",
" ......XXXXXX.XXXXXXXXXXXXXXXXX.",
" ......XXXXXXX.XXXXXXX.XXXXXXXX.",
"  ......XXXXX...XXXXX. .XXXXXX.."
};
