/* XPM */
static char *_7e6fb73848c4c2df0db5cd726518c24nBwh3S8USWFX4nMj[] = {
/* columns rows colors chars-per-pixel */
"32 32 151 2 ",
"   c None",
".  c #1B1613",
"X  c #211B17",
"o  c #261F1B",
"O  c #341813",
"+  c #3E1912",
"@  c #3B1F19",
"#  c #2B231E",
"$  c #34231E",
"%  c #3F201B",
"&  c #2F2421",
"*  c #3D2C26",
"=  c #4D1C14",
"-  c #591D13",
";  c #6D1F13",
":  c #7A1F12",
">  c #562017",
",  c #53241C",
"<  c #5B2619",
"1  c #562A1B",
"2  c #652317",
"3  c #682619",
"4  c #632B1C",
"5  c #762114",
"6  c #7C2214",
"7  c #7F2718",
"8  c #742819",
"9  c #7E2B1B",
"0  c #402E25",
"q  c #422F28",
"w  c #433127",
"e  c #443129",
"r  c #4D362B",
"t  c #51372C",
"y  c #54392D",
"u  c #5D3F2F",
"i  c #5C3E30",
"p  c #7E3921",
"a  c #644332",
"s  c #694634",
"d  c #6E4935",
"f  c #704A36",
"g  c #832516",
"h  c #892617",
"j  c #832817",
"k  c #882817",
"l  c #862D1B",
"z  c #8D2B1A",
"x  c #932D1B",
"c  c #8B301D",
"v  c #95301C",
"b  c #9B331E",
"n  c #96381F",
"m  c #A1351F",
"M  c #9E3720",
"N  c #943D22",
"B  c #9D3820",
"V  c #A23620",
"C  c #A43A22",
"Z  c #AA3D24",
"A  c #A44225",
"S  c #AC4326",
"D  c #A04927",
"F  c #A64E2A",
"G  c #AD4A28",
"H  c #B14426",
"J  c #B34628",
"K  c #B34C2A",
"L  c #B94D2B",
"P  c #B4542E",
"I  c #BC532E",
"U  c #B3592F",
"Y  c #BC5B31",
"T  c #B06233",
"R  c #BD6234",
"E  c #BE6836",
"W  c #B46C39",
"Q  c #BC6F39",
"!  c #C1562F",
"~  c #C15730",
"^  c #C25C32",
"/  c #C95F33",
"(  c #C56435",
")  c #C96536",
"_  c #CC6937",
"`  c #C56938",
"'  c #C76B39",
"]  c #C56C39",
"[  c #C46D39",
"{  c #C96B39",
"}  c #C86A38",
"|  c #CC6A38",
" . c #C96C39",
".. c #C86F3B",
"X. c #CC6C39",
"o. c #CD6E3A",
"O. c #CC6F3B",
"+. c #CE6E3A",
"@. c #CE6F3A",
"#. c #CB6C39",
"$. c #C1743C",
"%. c #C7743C",
"&. c #C8703B",
"*. c #CA703B",
"=. c #C8733C",
"-. c #C8723C",
";. c #CA723C",
":. c #CC713C",
">. c #CF733C",
",. c #C9753D",
"<. c #CF753D",
"1. c #CC773E",
"2. c #CD763E",
"3. c #CD703B",
"4. c #CF793F",
"5. c #CE793F",
"6. c #D0743D",
"7. c #D0773E",
"8. c #D0783F",
"9. c #D2793F",
"0. c #D37B40",
"q. c #D17D41",
"w. c #D37C41",
"e. c #D07E41",
"r. c #D37E41",
"t. c #D17F42",
"y. c #D37F42",
"u. c #D47E41",
"i. c #D17B40",
"p. c #CF8042",
"a. c #CF8645",
"s. c #D38243",
"d. c #D58042",
"f. c #D58143",
"g. c #D58243",
"h. c #D18444",
"j. c #D58544",
"k. c #D38343",
"l. c #D88746",
"z. c #D28B47",
"x. c #D78845",
"c. c #D58846",
"v. c #D58B47",
"b. c #D78B47",
"n. c #D68947",
"m. c #D98D48",
"M. c #D6914A",
"N. c #D89049",
"B. c #DA934B",
"V. c #D9954B",
"C. c #DC9C4F",
/* pixels */
"                                                                ",
"                              *.,.-.                            ",
"                        p.4.b.B.C.V.6.q.'                       ",
"                      O.s.{ <.f.0._ 8.q.q.8.I                   ",
"                    Z I S C I I I J I / ~ ( ( K                 ",
"                    z b v x Z Z b x S S Z V L !                 ",
"                ' $.Q D j g z z g C H x g g x b                 ",
"              ( >.q.q.q.Y S C M C P *.^ G S A A                 ",
"            x S K J J J I ! ~ ^ (  .{ ~ L L J G C               ",
"            : 6 g b K x x b V b K A m m x x h b P R             ",
"              T R K { P g g x z g g g k z S P ^ ( R             ",
"          ~ b.B.q.Y S  .G v A ^ K A b K <.q.f.( b               ",
"    b.b.-.^ ^ ~  .-.U K I Y z.b.j.b.] K q.O._ _ I K ( I         ",
"  ,.Y ^ >.q.8.O.f.l.f.Y Z -.m.O.) O.6.Y I I L H K u.h.C         ",
"C B l L L ) | ^ L K ) <.Y ) ) ~ L J J Z M C C I ( 8.<.R U       ",
"  ; 8 S S L L H z 7 A a.q.H Z m b B F U P b x J J I K q.i.O.' Y ",
"      h b C b z 7 N W M.b.K b g v E s.3.) H g C I ( I | ( ~ | P ",
"      6 z g     ] 4.i.{ ) ) H z H ~ I L Z 9 = > C ( f. .B B A k ",
"              I I L C b H J z 7 3 c m z 2 p < 1 N L ^  .n h g   ",
"            z b x x g k C z 2 @ . O - + 4 I ^  .k.%.B I S 5     ",
"              5   5   h g , $ # X & = 5 b V L I ) G k b x g     ",
"                            # # o #   6 6 6 g x C 7   :         ",
"                            e * *             5 g               ",
"                            y i r                               ",
"                            u f r                               ",
"                            a d e                               ",
"                            a d 0                               ",
"                            a s w                               ",
"                            r u w                               ",
"                            r y q                               ",
"                          i t r r e                             ",
"                          r * * t t                             "
};
